<svg id="visual" viewBox="0 0 960 540" width="960" height="540" xmlns="http://www.w3.org/2000/svg" xmlns:xlink="http://www.w3.org/1999/xlink" version="1.1"><rect x="0" y="0" width="960" height="540" fill="#0daeff"></rect><path d="M0 342L26.7 333C53.3 324 106.7 306 160 309.2C213.3 312.3 266.7 336.7 320 348.7C373.3 360.7 426.7 360.3 480 352C533.3 343.7 586.7 327.3 640 315.3C693.3 303.3 746.7 295.7 800 309.7C853.3 323.7 906.7 359.3 933.3 377.2L960 395L960 541L933.3 541C906.7 541 853.3 541 800 541C746.7 541 693.3 541 640 541C586.7 541 533.3 541 480 541C426.7 541 373.3 541 320 541C266.7 541 213.3 541 160 541C106.7 541 53.3 541 26.7 541L0 541Z" fill="#008000" stroke-linecap="round" stroke-linejoin="miter"></path></svg>